<svg xmlns="http://www.w3.org/2000/svg" xmlns:xlink="http://www.w3.org/1999/xlink" viewBox="0 0 401 401"><defs><style>.cls-1{isolation:isolate;}.cls-2{fill:#3ba94b;}.cls-10,.cls-11,.cls-12,.cls-13,.cls-14,.cls-15,.cls-16,.cls-17,.cls-18,.cls-19,.cls-2,.cls-20,.cls-21,.cls-22,.cls-23,.cls-24,.cls-25,.cls-26,.cls-27,.cls-28,.cls-4,.cls-5,.cls-6,.cls-7,.cls-8,.cls-9{stroke:#1d1d1b;}.cls-10,.cls-11,.cls-12,.cls-13,.cls-14,.cls-15,.cls-16,.cls-17,.cls-18,.cls-19,.cls-2,.cls-20,.cls-21,.cls-22,.cls-23,.cls-24,.cls-25,.cls-26,.cls-27,.cls-28,.cls-4,.cls-41,.cls-42,.cls-5,.cls-6,.cls-7,.cls-8,.cls-9{stroke-miterlimit:10;}.cls-3{mix-blend-mode:multiply;}.cls-4{fill:url(#Ikke-navngivet_forløb_17);}.cls-5{fill:url(#Ikke-navngivet_forløb_17-2);}.cls-6{fill:url(#Ikke-navngivet_forløb_17-3);}.cls-7{fill:url(#Ikke-navngivet_forløb_17-4);}.cls-8{fill:url(#Ikke-navngivet_forløb_17-5);}.cls-9{fill:url(#Ikke-navngivet_forløb_17-6);}.cls-10{fill:url(#Ikke-navngivet_forløb_17-7);}.cls-11{fill:url(#Ikke-navngivet_forløb_17-8);}.cls-12{fill:url(#Ikke-navngivet_forløb_17-9);}.cls-13{fill:url(#Ikke-navngivet_forløb_17-10);}.cls-14{fill:url(#Ikke-navngivet_forløb_17-11);}.cls-15{fill:url(#Ikke-navngivet_forløb_17-12);}.cls-16{fill:url(#Ikke-navngivet_forløb_17-13);}.cls-17{fill:url(#Ikke-navngivet_forløb_17-14);}.cls-18{fill:url(#Ikke-navngivet_forløb_17-15);}.cls-19{fill:url(#Ikke-navngivet_forløb_17-16);}.cls-20{fill:url(#Ikke-navngivet_forløb_17-17);}.cls-21{fill:url(#Ikke-navngivet_forløb_17-18);}.cls-22{fill:url(#Ikke-navngivet_forløb_17-19);}.cls-23{fill:url(#Ikke-navngivet_forløb_17-20);}.cls-24{fill:url(#Ikke-navngivet_forløb_17-21);}.cls-25{fill:url(#Ikke-navngivet_forløb_17-22);}.cls-26{fill:url(#Ikke-navngivet_forløb_17-23);}.cls-27{fill:url(#Ikke-navngivet_forløb_17-24);}.cls-28{fill:url(#Ikke-navngivet_forløb_17-25);}.cls-29{fill:url(#Ikke-navngivet_forløb_26);}.cls-30{fill:url(#Ikke-navngivet_forløb_63);}.cls-31{fill:url(#Ikke-navngivet_forløb_62);}.cls-32{fill:url(#Ikke-navngivet_forløb_61);}.cls-33{fill:url(#Ikke-navngivet_forløb_60);}.cls-34{fill:url(#Ikke-navngivet_forløb_59);}.cls-35{fill:url(#Ikke-navngivet_forløb_58);}.cls-36{fill:url(#Ikke-navngivet_forløb_57);}.cls-37{fill:url(#Ikke-navngivet_forløb_56);}.cls-38{fill:url(#Ikke-navngivet_forløb_55);}.cls-39{fill:url(#Ikke-navngivet_forløb_54);}.cls-40{fill:url(#Ikke-navngivet_forløb_32);}.cls-41,.cls-42{fill:none;stroke:#063;}.cls-41{stroke-width:4px;}.cls-42{stroke-width:6px;stroke-dasharray:29.26 29.26;}.cls-43{font-size:60.07px;font-family:CooperBlackStd-Italic, Cooper Std;font-style:italic;}</style><linearGradient id="Ikke-navngivet_forløb_17" x1="67.63" y1="168.8" x2="432.37" y2="331.2" gradientUnits="userSpaceOnUse"><stop offset="0" stop-color="#e6e6e6"/><stop offset="1" stop-color="#666"/></linearGradient><linearGradient id="Ikke-navngivet_forløb_17-2" x1="362.98" y1="205.87" x2="449.24" y2="244.28" xlink:href="#Ikke-navngivet_forløb_17"/><linearGradient id="Ikke-navngivet_forløb_17-3" x1="359.67" y1="172.9" x2="434.63" y2="206.28" xlink:href="#Ikke-navngivet_forløb_17"/><linearGradient id="Ikke-navngivet_forløb_17-4" x1="241.09" y1="86.1" x2="283.48" y2="104.98" xlink:href="#Ikke-navngivet_forløb_17"/><linearGradient id="Ikke-navngivet_forløb_17-5" x1="150.76" y1="85.56" x2="228.42" y2="120.13" xlink:href="#Ikke-navngivet_forløb_17"/><linearGradient id="Ikke-navngivet_forløb_17-6" x1="194" y1="80.05" x2="256.15" y2="107.72" xlink:href="#Ikke-navngivet_forløb_17"/><linearGradient id="Ikke-navngivet_forløb_17-7" x1="348.89" y1="145.2" x2="407.38" y2="171.24" xlink:href="#Ikke-navngivet_forløb_17"/><linearGradient id="Ikke-navngivet_forløb_17-8" x1="358.58" y1="241.86" x2="450.34" y2="282.71" xlink:href="#Ikke-navngivet_forløb_17"/><linearGradient id="Ikke-navngivet_forløb_17-9" x1="343.44" y1="285.9" x2="434.49" y2="326.44" xlink:href="#Ikke-navngivet_forløb_17"/><linearGradient id="Ikke-navngivet_forløb_17-10" x1="320.87" y1="329.9" x2="412.95" y2="370.9" xlink:href="#Ikke-navngivet_forløb_17"/><linearGradient id="Ikke-navngivet_forløb_17-11" x1="297.86" y1="358.58" x2="385.7" y2="397.69" xlink:href="#Ikke-navngivet_forløb_17"/><linearGradient id="Ikke-navngivet_forløb_17-12" x1="331.38" y1="124.62" x2="369.43" y2="141.56" xlink:href="#Ikke-navngivet_forløb_17"/><linearGradient id="Ikke-navngivet_forløb_17-13" x1="288.76" y1="103.28" x2="323.57" y2="118.78" xlink:href="#Ikke-navngivet_forløb_17"/><linearGradient id="Ikke-navngivet_forløb_17-14" x1="87.05" y1="129.1" x2="179.13" y2="170.1" xlink:href="#Ikke-navngivet_forløb_17"/><linearGradient id="Ikke-navngivet_forløb_17-15" x1="130.57" y1="358.44" x2="168.62" y2="375.38" xlink:href="#Ikke-navngivet_forløb_17"/><linearGradient id="Ikke-navngivet_forløb_17-16" x1="114.3" y1="102.31" x2="202.14" y2="141.42" xlink:href="#Ikke-navngivet_forløb_17"/><linearGradient id="Ikke-navngivet_forløb_17-17" x1="216.52" y1="395.02" x2="258.91" y2="413.9" xlink:href="#Ikke-navngivet_forløb_17"/><linearGradient id="Ikke-navngivet_forløb_17-18" x1="243.85" y1="392.28" x2="306" y2="419.95" xlink:href="#Ikke-navngivet_forløb_17"/><linearGradient id="Ikke-navngivet_forløb_17-19" x1="271.58" y1="379.87" x2="349.24" y2="414.44" xlink:href="#Ikke-navngivet_forløb_17"/><linearGradient id="Ikke-navngivet_forløb_17-20" x1="176.43" y1="381.22" x2="211.24" y2="396.72" xlink:href="#Ikke-navngivet_forløb_17"/><linearGradient id="Ikke-navngivet_forløb_17-21" x1="65.51" y1="173.56" x2="156.56" y2="214.1" xlink:href="#Ikke-navngivet_forløb_17"/><linearGradient id="Ikke-navngivet_forløb_17-22" x1="92.62" y1="328.76" x2="151.11" y2="354.8" xlink:href="#Ikke-navngivet_forløb_17"/><linearGradient id="Ikke-navngivet_forløb_17-23" x1="65.37" y1="293.72" x2="140.33" y2="327.1" xlink:href="#Ikke-navngivet_forløb_17"/><linearGradient id="Ikke-navngivet_forløb_17-24" x1="49.66" y1="217.29" x2="141.42" y2="258.14" xlink:href="#Ikke-navngivet_forløb_17"/><linearGradient id="Ikke-navngivet_forløb_17-25" x1="50.76" y1="255.72" x2="137.02" y2="294.13" xlink:href="#Ikke-navngivet_forløb_17"/><linearGradient id="Ikke-navngivet_forløb_26" x1="64.51" y1="250" x2="435.49" y2="250" gradientTransform="translate(-49.5 -49.5)" gradientUnits="userSpaceOnUse"><stop offset="0" stop-color="#fff"/><stop offset="1" stop-color="#333"/></linearGradient><linearGradient id="Ikke-navngivet_forløb_63" x1="66.23" y1="250" x2="433.77" y2="250" gradientTransform="translate(-49.5 -49.5)" gradientUnits="userSpaceOnUse"><stop offset="0" stop-color="#fff"/><stop offset="1" stop-color="#414141"/></linearGradient><linearGradient id="Ikke-navngivet_forløb_62" x1="67.95" y1="250" x2="432.05" y2="250" gradientTransform="translate(-49.5 -49.5)" gradientUnits="userSpaceOnUse"><stop offset="0" stop-color="#fff"/><stop offset="1" stop-color="#4f4f4f"/></linearGradient><linearGradient id="Ikke-navngivet_forløb_61" x1="69.67" y1="250" x2="430.33" y2="250" gradientTransform="translate(-49.5 -49.5)" gradientUnits="userSpaceOnUse"><stop offset="0" stop-color="#fff"/><stop offset="1" stop-color="#5d5d5d"/></linearGradient><linearGradient id="Ikke-navngivet_forløb_60" x1="71.39" y1="250" x2="428.61" y2="250" gradientTransform="translate(-49.5 -49.5)" gradientUnits="userSpaceOnUse"><stop offset="0" stop-color="#fff"/><stop offset="1" stop-color="#6b6b6b"/></linearGradient><linearGradient id="Ikke-navngivet_forløb_59" x1="73.11" y1="250" x2="426.89" y2="250" gradientTransform="translate(-49.5 -49.5)" gradientUnits="userSpaceOnUse"><stop offset="0" stop-color="#fff"/><stop offset="1" stop-color="#797979"/></linearGradient><linearGradient id="Ikke-navngivet_forløb_58" x1="74.83" y1="250" x2="425.17" y2="250" gradientTransform="translate(-49.5 -49.5)" gradientUnits="userSpaceOnUse"><stop offset="0" stop-color="#fff"/><stop offset="1" stop-color="#868686"/></linearGradient><linearGradient id="Ikke-navngivet_forløb_57" x1="76.55" y1="250" x2="423.45" y2="250" gradientTransform="translate(-49.5 -49.5)" gradientUnits="userSpaceOnUse"><stop offset="0" stop-color="#fff"/><stop offset="1" stop-color="#949494"/></linearGradient><linearGradient id="Ikke-navngivet_forløb_56" x1="78.27" y1="250" x2="421.73" y2="250" gradientTransform="translate(-49.5 -49.5)" gradientUnits="userSpaceOnUse"><stop offset="0" stop-color="#fff"/><stop offset="1" stop-color="#a2a2a2"/></linearGradient><linearGradient id="Ikke-navngivet_forløb_55" x1="79.99" y1="250" x2="420.01" y2="250" gradientTransform="translate(-49.5 -49.5)" gradientUnits="userSpaceOnUse"><stop offset="0" stop-color="#fff"/><stop offset="1" stop-color="#b0b0b0"/></linearGradient><linearGradient id="Ikke-navngivet_forløb_54" x1="81.71" y1="250" x2="418.28" y2="250" gradientTransform="translate(-49.5 -49.5)" gradientUnits="userSpaceOnUse"><stop offset="0" stop-color="#fff"/><stop offset="1" stop-color="#bebebe"/></linearGradient><linearGradient id="Ikke-navngivet_forløb_32" x1="33.94" y1="200.5" x2="367.06" y2="200.5" gradientUnits="userSpaceOnUse"><stop offset="0" stop-color="#fff"/><stop offset="1" stop-color="#ccc"/></linearGradient></defs><g class="cls-1"><g id="Lag_1" data-name="Lag 1"><path class="cls-2" d="M449.75,260.06c.16-3.33.25-6.69.25-10.06s-.09-6.73-.25-10.06c-17.45-9.64-18.87-20-4.57-33.7-1.41-6.32-3.12-12.54-5.11-18.62-19.24-4.29-23.2-13.62-12.8-30.28q-4.39-8.4-9.55-16.3c-19.59.93-25.7-7-19.82-25.67q-6.31-6.95-13.27-13.27C365.94,108,358,101.87,359,82.28q-7.89-5.15-16.3-9.55c-16.66,10.4-26,6.44-30.28-12.8-6.08-2-12.3-3.7-18.62-5.11-13.68,14.3-24.06,12.88-33.7-4.57-3.33-.16-6.69-.25-10.06-.25s-6.73.09-10.06.25c-9.64,17.45-20,18.87-33.7,4.57-6.32,1.41-12.54,3.12-18.62,5.11-4.29,19.24-13.62,23.2-30.28,12.8q-8.4,4.39-16.3,9.55c.93,19.59-7,25.7-25.67,19.82q-6.95,6.32-13.27,13.27C108,134.06,101.87,142,82.28,141q-5.15,7.89-9.55,16.3c10.4,16.66,6.44,26-12.8,30.28-2,6.08-3.7,12.3-5.11,18.62,14.3,13.68,12.88,24.06-4.57,33.7-.16,3.33-.25,6.69-.25,10.06s.09,6.73.25,10.06c17.45,9.64,18.87,20,4.57,33.7,1.41,6.32,3.12,12.54,5.11,18.62,19.24,4.29,23.2,13.62,12.8,30.28q4.39,8.4,9.55,16.3c19.59-.93,25.7,7,19.82,25.67q6.32,6.94,13.27,13.27c18.69-5.88,26.6.23,25.67,19.82q7.89,5.14,16.3,9.55c16.66-10.4,26-6.44,30.28,12.8,6.08,2,12.3,3.7,18.62,5.11,13.68-14.3,24.06-12.88,33.7,4.57,3.33.16,6.69.25,10.06.25s6.73-.09,10.06-.25c9.64-17.45,20-18.87,33.7-4.57,6.32-1.41,12.54-3.12,18.62-5.11,4.29-19.24,13.62-23.2,30.28-12.8q8.4-4.39,16.3-9.55c-.93-19.59,7-25.7,25.67-19.82q6.94-6.31,13.27-13.27c-5.88-18.69.23-26.6,19.82-25.67q5.14-7.89,9.55-16.3c-10.4-16.66-6.44-26,12.8-30.28,2-6.08,3.7-12.3,5.11-18.62C430.88,280.08,432.3,269.7,449.75,260.06Z" transform="translate(-49.5 -49.5)"/><g class="cls-3"><path class="cls-4" d="M449.75,260.06c.16-3.33.25-6.69.25-10.06s-.09-6.73-.25-10.06c-17.45-9.64-18.87-20-4.57-33.7-1.41-6.32-3.12-12.54-5.11-18.62-19.24-4.29-23.2-13.62-12.8-30.28q-4.39-8.4-9.55-16.3c-19.59.93-25.7-7-19.82-25.67q-6.31-6.95-13.27-13.27C365.94,108,358,101.87,359,82.28q-7.89-5.15-16.3-9.55c-16.66,10.4-26,6.44-30.28-12.8-6.08-2-12.3-3.7-18.62-5.11-13.68,14.3-24.06,12.88-33.7-4.57-3.33-.16-6.69-.25-10.06-.25s-6.73.09-10.06.25c-9.64,17.45-20,18.87-33.7,4.57-6.32,1.41-12.54,3.12-18.62,5.11-4.29,19.24-13.62,23.2-30.28,12.8q-8.4,4.39-16.3,9.55c.93,19.59-7,25.7-25.67,19.82q-6.95,6.32-13.27,13.27C108,134.06,101.87,142,82.28,141q-5.15,7.89-9.55,16.3c10.4,16.66,6.44,26-12.8,30.28-2,6.08-3.7,12.3-5.11,18.62,14.3,13.68,12.88,24.06-4.57,33.7-.16,3.33-.25,6.69-.25,10.06s.09,6.73.25,10.06c17.45,9.64,18.87,20,4.57,33.7,1.41,6.32,3.12,12.54,5.11,18.62,19.24,4.29,23.2,13.62,12.8,30.28q4.39,8.4,9.55,16.3c19.59-.93,25.7,7,19.82,25.67q6.32,6.94,13.27,13.27c18.69-5.88,26.6.23,25.67,19.82q7.89,5.14,16.3,9.55c16.66-10.4,26-6.44,30.28,12.8,6.08,2,12.3,3.7,18.62,5.11,13.68-14.3,24.06-12.88,33.7,4.57,3.33.16,6.69.25,10.06.25s6.73-.09,10.06-.25c9.64-17.45,20-18.87,33.7-4.57,6.32-1.41,12.54-3.12,18.62-5.11,4.29-19.24,13.62-23.2,30.28-12.8q8.4-4.39,16.3-9.55c-.93-19.59,7-25.7,25.67-19.82q6.94-6.31,13.27-13.27c-5.88-18.69.23-26.6,19.82-25.67q5.14-7.89,9.55-16.3c-10.4-16.66-6.44-26,12.8-30.28,2-6.08,3.7-12.3,5.11-18.62C430.88,280.08,432.3,269.7,449.75,260.06Z" transform="translate(-49.5 -49.5)"/><path class="cls-5" d="M449.86,242.9c0-1-.06-2-.11-3a47.44,47.44,0,0,1-7.9-5.32l-43.13-4.2,38.69-14.51a39.68,39.68,0,0,1,7.77-9.67c-.08-.38-.17-.75-.26-1.12L349.14,237Z" transform="translate(-49.5 -49.5)"/><path class="cls-6" d="M441.26,191.41c-.39-1.27-.78-2.53-1.19-3.79a49.9,49.9,0,0,1-7.7-2.31l-43.79,7.29,33.58-24a38.72,38.72,0,0,1,5.11-11.26l-.61-1.14-84.27,55.53Z" transform="translate(-49.5 -49.5)"/><path class="cls-7" d="M263.05,150.86l31.83-95.78-1.12-.26a39.68,39.68,0,0,1-9.67,7.77l-14.51,38.69-4.2-43.13a47.44,47.44,0,0,1-5.32-7.9c-1,0-2-.07-3-.11Z" transform="translate(-49.5 -49.5)"/><path class="cls-8" d="M211.73,157.61,191.41,58.74c-1.27.39-2.53.78-3.79,1.19a49.9,49.9,0,0,1-2.31,7.7l7.29,43.79-24-33.58a38.72,38.72,0,0,1-11.26-5.11l-1.14.61Z" transform="translate(-49.5 -49.5)"/><path class="cls-9" d="M237,150.86l6-100.72c-1,0-2,.06-3,.11a47.44,47.44,0,0,1-5.32,7.9l-4.2,43.13L215.91,62.59a39.68,39.68,0,0,1-9.67-7.77l-1.12.26Z" transform="translate(-49.5 -49.5)"/><path class="cls-10" d="M419.55,143.91c-.6-1-1.21-1.92-1.83-2.87a47.65,47.65,0,0,1-9.12-.35l-39.6,18,26.78-32.55a42.2,42.2,0,0,1,2.12-10.77c-.51-.56-1-1.11-1.56-1.67l-67,75.42Z" transform="translate(-49.5 -49.5)"/><path class="cls-11" d="M449.75,260.06c.05-1,.07-2,.11-3l-100.72,5.95,95.78,31.83c.09-.37.18-.74.26-1.12a39.68,39.68,0,0,1-7.77-9.67l-38.69-14.51,43.13-4.2A47.44,47.44,0,0,1,449.75,260.06Z" transform="translate(-49.5 -49.5)"/><path class="cls-12" d="M342.39,288.27l84.27,55.53.61-1.14a38.72,38.72,0,0,1-5.11-11.26l-33.58-24,43.79,7.29a49.9,49.9,0,0,1,7.7-2.31c.41-1.26.8-2.52,1.19-3.79Z" transform="translate(-49.5 -49.5)"/><path class="cls-13" d="M329.34,310.88l67,75.42c.52-.56,1.05-1.11,1.56-1.67a42.2,42.2,0,0,1-2.12-10.77L369,341.31l39.6,18a47.65,47.65,0,0,1,9.12-.35c.62-.95,1.23-1.91,1.83-2.87Z" transform="translate(-49.5 -49.5)"/><path class="cls-14" d="M310.88,329.34l45.21,90.21c1-.6,1.92-1.21,2.87-1.83a47.65,47.65,0,0,1,.35-9.12l-18-39.6,32.55,26.78a42.2,42.2,0,0,1,10.77,2.12c.56-.51,1.11-1,1.67-1.56Z" transform="translate(-49.5 -49.5)"/><path class="cls-15" d="M386.3,103.66c-.56-.52-1.11-1-1.67-1.56a42.2,42.2,0,0,1-10.77,2.12L341.31,131l18-39.6a47.65,47.65,0,0,1-.35-9.12c-.95-.62-1.91-1.23-2.87-1.83l-45.21,90.21Z" transform="translate(-49.5 -49.5)"/><path class="cls-16" d="M307.4,111.42l7.29-43.79a49.9,49.9,0,0,1-2.31-7.7c-1.26-.41-2.52-.8-3.79-1.19l-20.32,98.87L343.8,73.34l-1.14-.61a38.72,38.72,0,0,1-11.26,5.11Z" transform="translate(-49.5 -49.5)"/><path class="cls-17" d="M170.66,189.12l-67-75.42c-.52.56-1,1.11-1.56,1.67a42.2,42.2,0,0,1,2.12,10.77L131,158.69l-39.6-18a47.65,47.65,0,0,1-9.12.35c-.62,1-1.23,1.91-1.83,2.87Z" transform="translate(-49.5 -49.5)"/><path class="cls-18" d="M113.7,396.34c.56.52,1.11,1.05,1.67,1.56a42.2,42.2,0,0,1,10.77-2.12L158.69,369l-18,39.6a47.65,47.65,0,0,1,.35,9.12c1,.62,1.91,1.23,2.87,1.83l45.21-90.21Z" transform="translate(-49.5 -49.5)"/><path class="cls-19" d="M143.91,80.45c-1,.6-1.92,1.21-2.87,1.83a47.65,47.65,0,0,1-.35,9.12l18,39.6-32.55-26.78a42.2,42.2,0,0,1-10.77-2.12c-.56.51-1.11,1-1.67,1.56l75.42,67Z" transform="translate(-49.5 -49.5)"/><path class="cls-20" d="M237,349.14l-31.83,95.78,1.12.26a39.68,39.68,0,0,1,9.67-7.77l14.51-38.69,4.2,43.13a47.44,47.44,0,0,1,5.32,7.9c1,.05,2,.07,3,.11Z" transform="translate(-49.5 -49.5)"/><path class="cls-21" d="M263.05,349.14,257.1,449.86c1,0,2-.06,3-.11a47.44,47.44,0,0,1,5.32-7.9l4.2-43.13,14.51,38.69a39.68,39.68,0,0,1,9.67,7.77l1.12-.26Z" transform="translate(-49.5 -49.5)"/><path class="cls-22" d="M288.27,342.39l20.32,98.87c1.27-.39,2.53-.78,3.79-1.19a49.9,49.9,0,0,1,2.31-7.7l-7.29-43.79,24,33.58a38.72,38.72,0,0,1,11.26,5.11l1.14-.61Z" transform="translate(-49.5 -49.5)"/><path class="cls-23" d="M192.6,388.58l-7.29,43.79a49.9,49.9,0,0,1,2.31,7.7c1.26.41,2.52.8,3.79,1.19l20.32-98.87L156.2,426.66l1.14.61a38.72,38.72,0,0,1,11.26-5.11Z" transform="translate(-49.5 -49.5)"/><path class="cls-24" d="M157.61,211.73,73.34,156.2l-.61,1.14a38.72,38.72,0,0,1,5.11,11.26l33.58,24-43.79-7.29a49.9,49.9,0,0,1-7.7,2.31c-.41,1.26-.8,2.52-1.19,3.79Z" transform="translate(-49.5 -49.5)"/><path class="cls-25" d="M80.45,356.09c.6,1,1.21,1.92,1.83,2.87a47.65,47.65,0,0,1,9.12.35l39.6-18-26.78,32.55a42.2,42.2,0,0,1-2.12,10.77c.51.56,1,1.11,1.56,1.67l67-75.42Z" transform="translate(-49.5 -49.5)"/><path class="cls-26" d="M58.74,308.59c.39,1.27.78,2.53,1.19,3.79a49.9,49.9,0,0,1,7.7,2.31l43.79-7.29-33.58,24a38.72,38.72,0,0,1-5.11,11.26l.61,1.14,84.27-55.53Z" transform="translate(-49.5 -49.5)"/><path class="cls-27" d="M50.25,239.94c0,1-.07,2-.11,3l100.72-6L55.08,205.12c-.09.37-.18.74-.26,1.12a39.68,39.68,0,0,1,7.77,9.67l38.69,14.51-43.13,4.2A47.44,47.44,0,0,1,50.25,239.94Z" transform="translate(-49.5 -49.5)"/><path class="cls-28" d="M50.14,257.1c0,1,.06,2,.11,3a47.44,47.44,0,0,1,7.9,5.32l43.13,4.2L62.59,284.09a39.68,39.68,0,0,1-7.77,9.67c.08.38.17.75.26,1.12l95.78-31.83Z" transform="translate(-49.5 -49.5)"/><circle class="cls-29" cx="200.5" cy="200.5" r="185.49"/><circle class="cls-30" cx="200.5" cy="200.5" r="183.77"/><circle class="cls-31" cx="200.5" cy="200.5" r="182.05"/><circle class="cls-32" cx="200.5" cy="200.5" r="180.33"/><circle class="cls-33" cx="200.5" cy="200.5" r="178.61"/><circle class="cls-34" cx="200.5" cy="200.5" r="176.89"/><circle class="cls-35" cx="200.5" cy="200.5" r="175.17"/><circle class="cls-36" cx="200.5" cy="200.5" r="173.45"/><circle class="cls-37" cx="200.5" cy="200.5" r="171.73"/><circle class="cls-38" cx="200.5" cy="200.5" r="170.01"/><circle class="cls-39" cx="200.5" cy="200.5" r="168.29"/><circle class="cls-40" cx="200.5" cy="200.5" r="166.56"/></g></g><g id="Lag_2" data-name="Lag 2"><circle class="cls-41" cx="200.5" cy="200.5" r="173.39"/><circle class="cls-41" cx="200.5" cy="200.5" r="141.82"/><circle class="cls-42" cx="200.5" cy="200.5" r="158.34"/><text id="Øl_Kapsel" data-name="Øl Kapsel" class="cls-43" transform="translate(166.62 172.31)">Øl<tspan x="-70.07" y="72.08">Kapsel</tspan></text></g></g></svg>